<svg aria-hidden="true" style="position:absolute;width:0;height:0" xmlns="http://www.w3.org/2000/svg" overflow="hidden"><defs><symbol id="icon-fork" viewBox="0 0 32 32"><path d="M16.001 28.798a1.6 1.6 0 100-3.198 1.6 1.6 0 000 3.198zm1.652-6.106a4.8 4.8 0 11-3.31 9.012 4.8 4.8 0 01.058-9.032v-1.674l.012-.354a1.604 1.604 0 00-.739-1.019l-4.936-2.951a4.802 4.802 0 01-2.336-4.119V9.331A4.802 4.802 0 019.601.278a4.8 4.8 0 012.926 6.125 4.8 4.8 0 01-2.926 2.928v3.224c0 .563.297 1.084.779 1.373l4.936 2.953c.251.15.489.325.707.519a4.79 4.79 0 01.711-.519l4.936-2.953c.483-.289.779-.811.779-1.373V9.349A4.8 4.8 0 0123.995.006a4.798 4.798 0 011.653 9.305v3.244a4.799 4.799 0 01-2.336 4.119l-4.934 2.953a1.606 1.606 0 00-.739 1.019l.012.353v1.695zM8.002 6.403a1.6 1.6 0 100-3.198 1.6 1.6 0 000 3.198zm15.997 0a1.6 1.6 0 100-3.198 1.6 1.6 0 000 3.198z"/></symbol><symbol id="icon-eye" viewBox="0 0 32 32"><path d="M16 6C9.021 6 2.972 10.064 0 16c2.972 5.936 9.021 10 16 10s13.027-4.064 16-10c-2.972-5.936-9.021-10-16-10zm7.889 5.303A15.212 15.212 0 0128.559 16a15.223 15.223 0 01-4.67 4.697C21.527 22.204 18.799 23 16 23s-5.527-.796-7.889-2.303A15.212 15.212 0 013.441 16a15.223 15.223 0 015.041-4.925 8 8 0 1015.036 0c.124.074.248.15.371.228zM16 13a3 3 0 11-6 0 3 3 0 016 0z"/></symbol><symbol id="icon-star-full" viewBox="0 0 32 32"><path d="M32 12.408l-11.056-1.607L16 .783l-4.944 10.018L0 12.408l8 7.798-1.889 11.011L16 26.018l9.889 5.199L24 20.206l8-7.798z"/></symbol></defs></svg>