<svg aria-hidden="true" style="position: absolute; width: 0; height: 0; overflow: hidden;" version="1.1" xmlns="http://www.w3.org/2000/svg" xmlns:xlink="http://www.w3.org/1999/xlink">
<defs>
<symbol id="icon-fork" viewBox="0 0 32 32">
<path d="M16.001 28.798c0.884 0 1.599-0.717 1.599-1.599 0-0.884-0.716-1.599-1.599-1.599s-1.599 0.716-1.599 1.599c-0.001 0.883 0.715 1.599 1.599 1.599zM17.653 22.692c2.489 0.914 3.765 3.672 2.851 6.161s-3.672 3.766-6.161 2.851c-2.489-0.914-3.765-3.671-2.851-6.161 0.494-1.342 1.559-2.395 2.909-2.871v-1.674l0.012-0.354c-0.097-0.426-0.364-0.794-0.739-1.019l-4.936-2.951c-1.448-0.867-2.336-2.431-2.336-4.119v-3.224c-2.499-0.884-3.81-3.627-2.926-6.127 0.882-2.499 3.626-3.81 6.125-2.926 2.499 0.882 3.81 3.626 2.926 6.125-0.482 1.369-1.559 2.443-2.926 2.928v3.224c0 0.563 0.297 1.084 0.779 1.373l4.936 2.953c0.251 0.15 0.489 0.325 0.707 0.519 0.222-0.195 0.459-0.369 0.711-0.519l4.936-2.953c0.483-0.289 0.779-0.811 0.779-1.373v-3.206c-2.509-0.856-3.849-3.585-2.992-6.094 0.663-1.942 2.487-3.248 4.538-3.249 2.651-0.001 4.801 2.146 4.801 4.798 0.001 2.014-1.256 3.815-3.148 4.507v3.244c0 1.689-0.887 3.252-2.336 4.119l-4.934 2.953c-0.375 0.225-0.642 0.594-0.739 1.019l0.012 0.353v1.695zM8.002 6.403c0.884 0 1.599-0.717 1.599-1.599 0-0.884-0.716-1.599-1.599-1.599s-1.599 0.716-1.599 1.599c-0.001 0.882 0.715 1.599 1.599 1.599zM23.999 6.403c0.884 0 1.599-0.717 1.599-1.599 0-0.884-0.716-1.599-1.599-1.599s-1.599 0.716-1.599 1.599c0 0.882 0.715 1.599 1.599 1.599z"></path>
</symbol>
<symbol id="icon-eye" viewBox="0 0 32 32">
<path d="M16 6c-6.979 0-13.028 4.064-16 10 2.972 5.936 9.021 10 16 10s13.027-4.064 16-10c-2.972-5.936-9.021-10-16-10zM23.889 11.303c1.88 1.199 3.473 2.805 4.67 4.697-1.197 1.891-2.79 3.498-4.67 4.697-2.362 1.507-5.090 2.303-7.889 2.303s-5.527-0.796-7.889-2.303c-1.88-1.199-3.473-2.805-4.67-4.697 1.197-1.891 2.79-3.498 4.67-4.697 0.122-0.078 0.246-0.154 0.371-0.228-0.311 0.854-0.482 1.776-0.482 2.737 0 4.418 3.582 8 8 8s8-3.582 8-8c0-0.962-0.17-1.883-0.482-2.737 0.124 0.074 0.248 0.15 0.371 0.228v0zM16 13c0 1.657-1.343 3-3 3s-3-1.343-3-3 1.343-3 3-3 3 1.343 3 3z"></path>
</symbol>
<symbol id="icon-star-full" viewBox="0 0 32 32">
<path d="M32 12.408l-11.056-1.607-4.944-10.018-4.944 10.018-11.056 1.607 8 7.798-1.889 11.011 9.889-5.199 9.889 5.199-1.889-11.011 8-7.798z"></path>
</symbol>
</defs>
</svg>
